0
SECTION
2
HEADER
9
$INSUNITS
70
4
9
$ACADVER
1
AC1014
9
$HANDSEED
5
FFFF
0
ENDSEC
0
SECTION
2
TABLES
0
TABLE
2
VPORT
5
8
100
AcDbSymbolTable
0
ENDTAB
0
TABLE
2
LTYPE
5
5
100
AcDbSymbolTable
0
LTYPE
5
14
100
AcDbSymbolTableRecord
100
AcDbLinetypeTableRecord
2
BYBLOCK
70
0
0
LTYPE
5
15
100
AcDbSymbolTableRecord
100
AcDbLinetypeTableRecord
2
BYLAYER
70
0
0
ENDTAB
0
TABLE
2
LAYER
5
2
100
AcDbSymbolTable
70
2
0
LAYER
5
50
100
AcDbSymbolTableRecord
100
AcDbLayerTableRecord
2
0
70
0
6
CONTINUOUS
0
ENDTAB
0
TABLE
2
STYLE
5
3
100
AcDbSymbolTable
70
1
0
STYLE
5
11
100
AcDbSymbolTableRecord
100
AcDbTextStyleTableRecord
2
STANDARD
70
0
0
ENDTAB
0
TABLE
2
VIEW
5
6
100
AcDbSymbolTable
70
0
0
ENDTAB
0
TABLE
2
UCS
5
7
100
AcDbSymbolTable
70
0
0
ENDTAB
0
TABLE
2
APPID
5
9
100
AcDbSymbolTable
70
2
0
APPID
5
12
100
AcDbSymbolTableRecord
100
AcDbRegAppTableRecord
2
ACAD
70
0
0
ENDTAB
0
TABLE
2
DIMSTYLE
5
A
100
AcDbSymbolTable
70
1
0
ENDTAB
0
TABLE
2
BLOCK_RECORD
5
1
100
AcDbSymbolTable
70
1
0
BLOCK_RECORD
5
1F
100
AcDbSymbolTableRecord
100
AcDbBlockTableRecord
2
*MODEL_SPACE
0
BLOCK_RECORD
5
1B
100
AcDbSymbolTableRecord
100
AcDbBlockTableRecord
2
*PAPER_SPACE
0
ENDTAB
0
ENDSEC
0
SECTION
2
BLOCKS
0
BLOCK
5
20
100
AcDbEntity
100
AcDbBlockBegin
2
*MODEL_SPACE
0
ENDBLK
5
21
100
AcDbEntity
100
AcDbBlockEnd
0
BLOCK
5
1C
100
AcDbEntity
100
AcDbBlockBegin
2
*PAPER_SPACE
0
ENDBLK
5
1D
100
AcDbEntity
100
AcDbBlockEnd
0
ENDSEC
0
SECTION
2
ENTITIES
0
LWPOLYLINE
5
100
100
AcDbEntity
8
0
100
AcDbPolyline
90
9
70
1
43
0.0
10
300.00000000000006
20
73.979294685340449
10
299.99999999999994
20
-123.02070531465969
10
219.99999999999997
20
-123.02070531465969
10
183.74768851853395
20
-106.11597484503172
10
0
20
-87.020705314659665
10
-183.74768851853395
20
-106.11597484503172
10
-219.99999999999997
20
-123.02070531465969
10
-299.99999999999994
20
-123.02070531465966
10
-300.00000000000006
20
73.979294685340435
0
LWPOLYLINE
5
101
100
AcDbEntity
8
0
100
AcDbPolyline
90
4
70
1
43
0.0
10
239.99999999999997
20
-80.020705314659622
10
239.99999999999997
20
-83.020705314659637
10
269.99999999999994
20
-83.020705314659637
10
269.99999999999994
20
-80.020705314659622
0
LWPOLYLINE
5
102
100
AcDbEntity
8
0
100
AcDbPolyline
90
4
70
1
43
0.0
10
-51.428571428571459
20
-80.020705314659622
10
-51.428571428571459
20
-83.020705314659637
10
-21.428571428571459
20
-83.020705314659637
10
-21.428571428571459
20
-80.020705314659622
0
LWPOLYLINE
5
103
100
AcDbEntity
8
0
100
AcDbPolyline
90
4
70
1
43
0.0
10
-240.00000000000003
20
-83.020705314659637
10
-240.00000000000003
20
-80.020705314659622
10
-270.00000000000006
20
-80.020705314659622
10
-270.00000000000006
20
-83.020705314659637
0
LWPOLYLINE
5
104
100
AcDbEntity
8
0
100
AcDbPolyline
90
4
70
1
43
0.0
10
21.428571428571388
20
-80.020705314659622
10
21.428571428571388
20
-83.020705314659637
10
51.428571428571388
20
-83.020705314659637
10
51.428571428571388
20
-80.020705314659622
0
LWPOLYLINE
5
105
100
AcDbEntity
8
0
100
AcDbPolyline
90
4
70
1
43
0.0
10
167.14285714285711
20
-80.020705314659622
10
167.14285714285711
20
-83.020705314659637
10
197.14285714285711
20
-83.020705314659637
10
197.14285714285711
20
-80.020705314659622
0
LWPOLYLINE
5
106
100
AcDbEntity
8
0
100
AcDbPolyline
90
4
70
1
43
0.0
10
-124.28571428571432
20
-80.020705314659622
10
-124.28571428571432
20
-83.020705314659637
10
-94.28571428571432
20
-83.020705314659637
10
-94.28571428571432
20
-80.020705314659622
0
LWPOLYLINE
5
107
100
AcDbEntity
8
0
100
AcDbPolyline
90
4
70
1
43
0.0
10
-197.1428571428572
20
-80.020705314659622
10
-197.1428571428572
20
-83.020705314659637
10
-167.1428571428572
20
-83.020705314659637
10
-167.1428571428572
20
-80.020705314659622
0
LWPOLYLINE
5
108
100
AcDbEntity
8
0
100
AcDbPolyline
90
4
70
1
43
0.0
10
94.285714285714278
20
-80.020705314659622
10
94.285714285714278
20
-83.020705314659637
10
124.28571428571428
20
-83.020705314659637
10
124.28571428571428
20
-80.020705314659622
0
LWPOLYLINE
5
109
100
AcDbEntity
8
0
100
AcDbPolyline
90
4
70
1
43
0.0
10
292.00000000000085
20
-53.020705314659594
10
292.00000000000085
20
-23.020705314659651
10
289.00000000000028
20
-23.020705314659654
10
289.00000000000028
20
-53.020705314659594
0
LWPOLYLINE
5
110
100
AcDbEntity
8
0
100
AcDbPolyline
90
4
70
1
43
0.0
10
-292.00000000000034
20
-53.020705314659665
10
-289.00000000000085
20
-53.020705314659665
10
-289.00000000000085
20
-23.020705314659597
10
-292.00000000000034
20
-23.020705314659601
0
LWPOLYLINE
5
111
100
AcDbEntity
8
0
100
AcDbPolyline
90
4
70
1
43
0.0
10
291.99999999999994
20
16.979294685340346
10
291.99999999999994
20
46.979294685340356
10
288.99999999999994
20
46.979294685340363
10
288.99999999999994
20
16.979294685340349
0
LWPOLYLINE
5
112
100
AcDbEntity
8
0
100
AcDbPolyline
90
4
70
1
43
0.0
10
-288.99999999999994
20
16.979294685340346
10
-288.99999999999994
20
46.979294685340356
10
-291.99999999999994
20
46.979294685340363
10
-291.99999999999994
20
16.979294685340349
0
CIRCLE
5
113
100
AcDbEntity
8
0
100
AcDbCircle
10
290.5000000000004
20
-68.020705314659665
30
0
40
1.4999999999997371
0
CIRCLE
5
114
100
AcDbEntity
8
0
100
AcDbCircle
10
290.5
20
60.479294685340363
30
0
40
1.5000000000000213
0
CIRCLE
5
115
100
AcDbEntity
8
0
100
AcDbCircle
10
-290.5000000000004
20
-68.020705314659665
30
0
40
1.4999999999997371
0
CIRCLE
5
116
100
AcDbEntity
8
0
100
AcDbCircle
10
-290.5
20
60.479294685340363
30
0
40
1.5000000000000213
0
CIRCLE
5
117
100
AcDbEntity
8
0
100
AcDbCircle
10
-218.57142857142861
20
-81.520705314659679
30
0
40
1.4999999999999858
0
CIRCLE
5
118
100
AcDbEntity
8
0
100
AcDbCircle
10
218.57142857142856
20
-81.520705314659679
30
0
40
1.4999999999999858
0
CIRCLE
5
119
100
AcDbEntity
8
0
100
AcDbCircle
10
-72.857142857142904
20
-81.520705314659722
30
0
40
1.5000000000000036
0
CIRCLE
5
120
100
AcDbEntity
8
0
100
AcDbCircle
10
72.857142857142833
20
-81.520705314659722
30
0
40
1.5000000000000036
0
CIRCLE
5
121
100
AcDbEntity
8
0
100
AcDbCircle
10
-282.99999999999994
20
-0.020705314659648092
30
0
40
1.9999999999999929
0
CIRCLE
5
122
100
AcDbEntity
8
0
100
AcDbCircle
10
-144.99999999999986
20
-0.02070531465963921
30
0
40
2.0000000000000107
0
CIRCLE
5
123
100
AcDbEntity
8
0
100
AcDbCircle
10
-282.99999999999994
20
-64.020705314659651
30
0
40
1.9999999999999929
0
CIRCLE
5
124
100
AcDbEntity
8
0
100
AcDbCircle
10
-168.99999999999989
20
-74.020705314659637
30
0
40
1.9999999999999929
0
LWPOLYLINE
5
125
100
AcDbEntity
8
0
100
AcDbPolyline
90
10
70
1
43
0.0
10
-270.99999999999994
20
5.9792946853403599
10
-285.00000000000159
20
-8.0207053146613028
10
-285.00000000000159
20
-56.020705314659637
10
-276.99999999999994
20
-56.020705314659637
10
-276.99999857135884
20
-76.020705314659679
10
-184.4251840539369
20
-76.020705314659622
10
-172.99999999999983
20
-68.020705314659637
10
-138.99999999999983
20
-68.020705314659637
10
-138.99999999999983
20
-12.020705314659633
10
-156.99999999999986
20
5.979294685340367
0
LWPOLYLINE
5
126
100
AcDbEntity
8
0
100
AcDbPolyline
90
6
70
1
43
0.0
10
28.911599999999929
20
34.739294685340482
10
28.911599999999957
20
-25.810705314659593
10
-129.83840000000004
20
-25.810705314659597
10
-129.83840000000004
20
-70.260705314659617
10
175.1449999999997
20
-70.260705314659532
10
175.14499999999973
20
34.739294685340468
0
LWPOLYLINE
5
127
100
AcDbEntity
8
0
100
AcDbPolyline
90
4
70
1
43
0.0
10
28.911599999999925
20
45.809294685340149
10
28.911599999999925
20
40.809294685340149
10
48.884999999999827
20
40.809294685340149
10
48.884999999999827
20
45.809294685340149
0
LWPOLYLINE
5
128
100
AcDbEntity
8
0
100
AcDbPolyline
90
4
70
1
43
0.0
10
130.16499999999979
20
45.809294685340149
10
110.7149999999998
20
45.809294685340149
10
110.7149999999998
20
40.809294685340149
10
130.16499999999979
20
40.809294685340149
0
LWPOLYLINE
5
129
100
AcDbEntity
8
0
100
AcDbPolyline
90
4
70
1
43
0.0
10
175.14499999999973
20
40.809294685340149
10
175.14499999999973
20
45.809294685340149
10
151.35499999999971
20
45.809294685340149
10
151.35499999999971
20
40.809294685340149
0
LWPOLYLINE
5
130
100
AcDbEntity
8
0
100
AcDbPolyline
90
4
70
1
43
0.0
10
49.754999999999768
20
40.809294685340149
10
69.204999999999757
20
40.809294685340149
10
69.204999999999757
20
45.809294685340149
10
49.754999999999768
20
45.809294685340149
0
LWPOLYLINE
5
131
100
AcDbEntity
8
0
100
AcDbPolyline
90
4
70
1
43
0.0
10
131.03499999999971
20
45.809294685340149
10
131.03499999999971
20
40.809294685340149
10
150.48499999999967
20
40.809294685340149
10
150.48499999999967
20
45.809294685340149
0
LWPOLYLINE
5
132
100
AcDbEntity
8
0
100
AcDbPolyline
90
4
70
1
43
0.0
10
90.394999999999811
20
40.809294685340149
10
109.8449999999998
20
40.809294685340149
10
109.8449999999998
20
45.809294685340149
10
90.394999999999811
20
45.809294685340149
0
LWPOLYLINE
5
133
100
AcDbEntity
8
0
100
AcDbPolyline
90
4
70
1
43
0.0
10
70.074999999999804
20
40.809294685340149
10
89.524999999999793
20
40.809294685340149
10
89.524999999999793
20
45.809294685340149
10
70.074999999999804
20
45.809294685340149
0
ENDSEC
0
SECTION
2
OBJECTS
0
DICTIONARY
5
C
100
AcDbDictionary
3
ACAD_GROUP
350
D
3
ACAD_MLINESTYLE
350
17
0
DICTIONARY
5
D
100
AcDbDictionary
0
DICTIONARY
5
1A
330
C
100
AcDbDictionary
0
DICTIONARY
5
17
100
AcDbDictionary
0
ENDSEC
0
EOF
