0
SECTION
2
HEADER
9
$INSUNITS
70
4
9
$ACADVER
1
AC1014
9
$HANDSEED
5
FFFF
0
ENDSEC
0
SECTION
2
TABLES
0
TABLE
2
VPORT
5
8
100
AcDbSymbolTable
0
ENDTAB
0
TABLE
2
LTYPE
5
5
100
AcDbSymbolTable
0
LTYPE
5
14
100
AcDbSymbolTableRecord
100
AcDbLinetypeTableRecord
2
BYBLOCK
70
0
0
LTYPE
5
15
100
AcDbSymbolTableRecord
100
AcDbLinetypeTableRecord
2
BYLAYER
70
0
0
ENDTAB
0
TABLE
2
LAYER
5
2
100
AcDbSymbolTable
70
2
0
LAYER
5
50
100
AcDbSymbolTableRecord
100
AcDbLayerTableRecord
2
0
70
0
6
CONTINUOUS
0
ENDTAB
0
TABLE
2
STYLE
5
3
100
AcDbSymbolTable
70
1
0
STYLE
5
11
100
AcDbSymbolTableRecord
100
AcDbTextStyleTableRecord
2
STANDARD
70
0
0
ENDTAB
0
TABLE
2
VIEW
5
6
100
AcDbSymbolTable
70
0
0
ENDTAB
0
TABLE
2
UCS
5
7
100
AcDbSymbolTable
70
0
0
ENDTAB
0
TABLE
2
APPID
5
9
100
AcDbSymbolTable
70
2
0
APPID
5
12
100
AcDbSymbolTableRecord
100
AcDbRegAppTableRecord
2
ACAD
70
0
0
ENDTAB
0
TABLE
2
DIMSTYLE
5
A
100
AcDbSymbolTable
70
1
0
ENDTAB
0
TABLE
2
BLOCK_RECORD
5
1
100
AcDbSymbolTable
70
1
0
BLOCK_RECORD
5
1F
100
AcDbSymbolTableRecord
100
AcDbBlockTableRecord
2
*MODEL_SPACE
0
BLOCK_RECORD
5
1B
100
AcDbSymbolTableRecord
100
AcDbBlockTableRecord
2
*PAPER_SPACE
0
ENDTAB
0
ENDSEC
0
SECTION
2
BLOCKS
0
BLOCK
5
20
100
AcDbEntity
100
AcDbBlockBegin
2
*MODEL_SPACE
0
ENDBLK
5
21
100
AcDbEntity
100
AcDbBlockEnd
0
BLOCK
5
1C
100
AcDbEntity
100
AcDbBlockBegin
2
*PAPER_SPACE
0
ENDBLK
5
1D
100
AcDbEntity
100
AcDbBlockEnd
0
ENDSEC
0
SECTION
2
ENTITIES
0
LWPOLYLINE
5
100
100
AcDbEntity
8
0
100
AcDbPolyline
90
244
70
1
43
0.0
10
71.35714285714289
20
-165.39070531465953
10
71.35714285714289
20
-175.02070531465955
10
51.428571428571459
20
-175.02070531465958
10
51.428571428571459
20
-178.02070531465958
10
21.428571428571459
20
-178.02070531465958
10
21.428571428571459
20
-175.02070531465958
10
-21.428571428571388
20
-175.02070531465958
10
-21.428571428571388
20
-178.02070531465958
10
-51.428571428571388
20
-178.02070531465958
10
-51.428571428571388
20
-175.02070531465958
10
-71.357142857142833
20
-175.02070531465958
10
-71.357142857142833
20
-165.39070531465961
10
-70.157142857142844
20
-165.39070531465961
10
-70.157142857142844
20
-163.02070531465958
10
-71.357142857142833
20
-163.02070531465958
10
-71.357142857142833
20
-160.02070531465958
10
-74.357142857142861
20
-160.02070531465958
10
-74.357142857142861
20
-163.02070531465958
10
-75.55714285714285
20
-163.02070531465958
10
-75.55714285714285
20
-165.39070531465961
10
-74.357142857142861
20
-165.39070531465961
10
-74.357142857142861
20
-175.02070531465958
10
-94.285714285714278
20
-175.02070531465958
10
-94.285714285714278
20
-178.02070531465958
10
-124.28571428571428
20
-178.02070531465958
10
-124.28571428571428
20
-175.02070531465958
10
-167.14285714285711
20
-175.02070531465958
10
-167.14285714285711
20
-178.02070531465958
10
-197.14285714285711
20
-178.02070531465958
10
-197.14285714285711
20
-175.02070531465958
10
-217.07142857142858
20
-175.02070531465958
10
-217.07142857142858
20
-165.39070531465961
10
-215.87142857142854
20
-165.39070531465961
10
-215.87142857142854
20
-163.02070531465958
10
-217.07142857142858
20
-163.02070531465958
10
-217.07142857142858
20
-160.02070531465958
10
-220.07142857142856
20
-160.02070531465958
10
-220.07142857142856
20
-163.02070531465958
10
-221.27142857142854
20
-163.02070531465958
10
-221.27142857142854
20
-165.39070531465961
10
-220.07142857142856
20
-165.39070531465961
10
-220.07142857142856
20
-175.02070531465958
10
-239.99999999999997
20
-175.02070531465958
10
-239.99999999999997
20
-178.02070531465958
10
-269.99999999999994
20
-178.02070531465958
10
-269.99999999999994
20
-175.02070531465958
10
-288.99999999999994
20
-175.02070531465955
10
-288.99999999999994
20
-148.02070531465955
10
-291.99999999999994
20
-148.02070531465955
10
-291.99999999999994
20
-118.02070531465955
10
-288.99999999999994
20
-118.02070531465955
10
-288.99999999999994
20
-99.52070531465958
10
-279.36999999999989
20
-99.52070531465958
10
-279.36999999999989
20
-100.72070531465957
10
-276.99999999999994
20
-100.72070531465957
10
-276.99999999999994
20
-99.52070531465958
10
-273.99999999999989
20
-99.52070531465958
10
-273.99999999999989
20
-96.520705314659594
10
-276.99999999999994
20
-96.520705314659594
10
-276.99999999999994
20
-95.320705314659591
10
-279.36999999999989
20
-95.320705314659591
10
-279.36999999999989
20
-96.520705314659594
10
-288.99999999999994
20
-96.520705314659594
10
-288.99999999999994
20
-78.020705314659565
10
-291.99999999999994
20
-78.020705314659565
10
-291.99999999999994
20
-48.020705314659565
10
-288.99999999999994
20
-48.020705314659565
10
-288.99999999999994
20
-8.0207053146595655
10
-291.99999999999994
20
-8.0207053146595655
10
-291.99999999999994
20
21.979294685340435
10
-288.99999999999994
20
21.979294685340438
10
-288.99999999999989
20
40.479294685340463
10
-279.36999999999989
20
40.479294685340449
10
-279.36999999999989
20
39.279294685340467
10
-276.99999999999994
20
39.279294685340467
10
-276.99999999999994
20
40.479294685340463
10
-273.99999999999989
20
40.479294685340463
10
-273.99999999999989
20
43.479294685340463
10
-276.99999999999994
20
43.479294685340463
10
-276.99999999999994
20
44.679294685340459
10
-279.36999999999989
20
44.679294685340459
10
-279.36999999999989
20
43.479294685340463
10
-289.00000000000028
20
43.479294685340463
10
-288.99999999999994
20
61.979294685340435
10
-291.99999999999994
20
61.979294685340435
10
-291.99999999999994
20
91.979294685340435
10
-288.99999999999994
20
91.979294685340435
10
-288.99999999999994
20
118.97929468534042
10
-269.99999999999994
20
118.97929468534043
10
-269.99999999999994
20
121.97929468534042
10
-239.99999999999997
20
121.97929468534042
10
-239.99999999999997
20
118.97929468534043
10
-220.07142857142853
20
118.97929468534042
10
-220.07142857142853
20
109.34929468534042
10
-221.27142857142854
20
109.34929468534042
10
-221.27142857142854
20
106.97929468534042
10
-220.07142857142853
20
106.97929468534042
10
-220.07142857142853
20
103.97929468534042
10
-217.07142857142856
20
103.97929468534042
10
-217.07142857142856
20
106.97929468534042
10
-215.87142857142854
20
106.97929468534042
10
-215.87142857142854
20
109.34929468534042
10
-217.07142857142856
20
109.34929468534042
10
-217.07142857142856
20
118.97929468534042
10
-197.14285714285711
20
118.97929468534043
10
-197.14285714285711
20
121.97929468534042
10
-167.14285714285711
20
121.97929468534042
10
-167.14285714285711
20
118.97929468534043
10
-124.28571428571425
20
118.97929468534043
10
-124.28571428571425
20
121.97929468534042
10
-94.285714285714249
20
121.97929468534042
10
-94.285714285714249
20
118.97929468534043
10
-74.357142857142833
20
118.97929468534042
10
-74.357142857142833
20
109.34929468534042
10
-75.557142857142836
20
109.34929468534042
10
-75.557142857142836
20
106.97929468534042
10
-74.357142857142833
20
106.97929468534042
10
-74.357142857142833
20
103.97929468534042
10
-71.357142857142833
20
103.97929468534042
10
-71.357142857142833
20
106.97929468534042
10
-70.15714285714283
20
106.97929468534042
10
-70.15714285714283
20
109.34929468534042
10
-71.357142857142833
20
109.34929468534042
10
-71.357142857142833
20
118.97929468534042
10
-51.428571428571388
20
118.97929468534043
10
-51.428571428571388
20
121.97929468534042
10
-21.428571428571388
20
121.97929468534042
10
-21.428571428571388
20
118.97929468534043
10
21.428571428571459
20
118.97929468534043
10
21.428571428571459
20
121.97929468534042
10
51.428571428571459
20
121.97929468534042
10
51.428571428571459
20
118.97929468534043
10
71.35714285714289
20
118.97929468534042
10
71.35714285714289
20
109.34929468534042
10
70.157142857142901
20
109.34929468534042
10
70.157142857142901
20
106.97929468534042
10
71.35714285714289
20
106.97929468534042
10
71.35714285714289
20
103.97929468534042
10
74.357142857142904
20
103.97929468534042
10
74.357142857142904
20
106.97929468534042
10
75.557142857142907
20
106.97929468534042
10
75.557142857142907
20
109.34929468534042
10
74.357142857142904
20
109.34929468534042
10
74.357142857142904
20
118.97929468534042
10
94.285714285714334
20
118.97929468534043
10
94.285714285714334
20
121.97929468534042
10
124.28571428571433
20
121.97929468534042
10
124.28571428571433
20
118.97929468534043
10
167.1428571428572
20
118.97929468534043
10
167.1428571428572
20
121.97929468534042
10
197.1428571428572
20
121.97929468534042
10
197.1428571428572
20
118.97929468534043
10
217.07142857142861
20
118.97929468534042
10
217.07142857142861
20
109.34929468534042
10
215.87142857142862
20
109.34929468534042
10
215.87142857142862
20
106.97929468534042
10
217.07142857142861
20
106.97929468534042
10
217.07142857142861
20
103.97929468534042
10
220.07142857142861
20
103.97929468534042
10
220.07142857142861
20
106.97929468534042
10
221.2714285714286
20
106.97929468534042
10
221.2714285714286
20
109.34929468534042
10
220.07142857142861
20
109.34929468534042
10
220.07142857142861
20
118.97929468534042
10
240.00000000000003
20
118.97929468534043
10
240.00000000000003
20
121.97929468534042
10
270.00000000000006
20
121.97929468534042
10
270.00000000000006
20
118.97929468534043
10
288.99999999999994
20
118.97929468534042
10
288.99999999999994
20
91.979294685340435
10
291.99999999999994
20
91.979294685340435
10
291.99999999999994
20
61.979294685340435
10
288.99999999999994
20
61.979294685340435
10
289.0000000000004
20
43.479294685340463
10
279.37
20
43.479294685340463
10
279.37
20
44.679294685340459
10
277
20
44.679294685340459
10
277
20
43.479294685340463
10
274
20
43.479294685340463
10
274
20
40.479294685340463
10
277
20
40.479294685340449
10
277
20
39.279294685340467
10
279.37
20
39.279294685340467
10
279.37
20
40.479294685340463
10
289
20
40.479294685340449
10
288.99999999999994
20
21.979294685340435
10
291.99999999999994
20
21.979294685340435
10
291.99999999999994
20
-8.0207053146595655
10
288.99999999999994
20
-8.0207053146595619
10
288.99999999999994
20
-48.020705314659565
10
291.99999999999994
20
-48.020705314659565
10
291.99999999999994
20
-78.020705314659565
10
288.99999999999994
20
-78.020705314659565
10
289
20
-96.520705314659594
10
279.37
20
-96.520705314659594
10
279.37
20
-95.320705314659591
10
277
20
-95.320705314659591
10
277
20
-96.520705314659594
10
274
20
-96.520705314659594
10
274
20
-99.52070531465958
10
277
20
-99.52070531465958
10
277
20
-100.72070531465957
10
279.37
20
-100.72070531465957
10
279.37
20
-99.52070531465958
10
289.0000000000004
20
-99.52070531465958
10
288.99999999999994
20
-118.02070531465955
10
291.99999999999994
20
-118.02070531465955
10
291.99999999999994
20
-148.02070531465955
10
288.99999999999994
20
-148.02070531465955
10
288.99999999999994
20
-175.02070531465958
10
270.00000000000006
20
-175.02070531465958
10
270.00000000000006
20
-178.02070531465958
10
240.00000000000003
20
-178.02070531465958
10
240.00000000000003
20
-175.02070531465958
10
220.07142857142861
20
-175.02070531465955
10
220.07142857142861
20
-165.39070531465953
10
221.2714285714286
20
-165.39070531465953
10
221.2714285714286
20
-163.02070531465955
10
220.07142857142861
20
-163.02070531465955
10
220.07142857142861
20
-160.02070531465955
10
217.07142857142861
20
-160.02070531465955
10
217.07142857142861
20
-163.02070531465955
10
215.87142857142862
20
-163.02070531465955
10
215.87142857142862
20
-165.39070531465953
10
217.07142857142861
20
-165.39070531465953
10
217.07142857142861
20
-175.02070531465955
10
197.1428571428572
20
-175.02070531465958
10
197.1428571428572
20
-178.02070531465958
10
167.1428571428572
20
-178.02070531465958
10
167.1428571428572
20
-175.02070531465958
10
124.28571428571432
20
-175.02070531465958
10
124.28571428571432
20
-178.02070531465958
10
94.28571428571432
20
-178.02070531465958
10
94.28571428571432
20
-175.02070531465958
10
74.357142857142904
20
-175.02070531465955
10
74.357142857142904
20
-165.39070531465953
10
75.557142857142907
20
-165.39070531465953
10
75.557142857142907
20
-163.02070531465955
10
74.357142857142904
20
-163.02070531465955
10
74.357142857142904
20
-160.02070531465955
10
71.35714285714289
20
-160.02070531465955
10
71.35714285714289
20
-163.02070531465955
10
70.157142857142887
20
-163.02070531465955
10
70.157142857142887
20
-165.39070531465953
0
CIRCLE
5
101
100
AcDbEntity
8
0
100
AcDbCircle
10
-82.149999999999878
20
-161.36070531465961
30
0
40
1.9999999999999929
0
CIRCLE
5
102
100
AcDbEntity
8
0
100
AcDbCircle
10
121.05000000000001
20
65.969294685340557
30
0
40
1.9999999999999929
0
CIRCLE
5
103
100
AcDbEntity
8
0
100
AcDbCircle
10
-102.46999999999997
20
-6.4207053146594859
30
0
40
1.9999999999999929
0
CIRCLE
5
104
100
AcDbEntity
8
0
100
AcDbCircle
10
-82.149999999999878
20
-6.4207053146594859
30
0
40
1.9999999999999929
0
CIRCLE
5
105
100
AcDbEntity
8
0
100
AcDbCircle
10
121.05000000000001
20
-6.4207053146594859
30
0
40
1.9999999999999929
0
CIRCLE
5
106
100
AcDbEntity
8
0
100
AcDbCircle
10
-160.88999999999999
20
-161.36070531465961
30
0
40
1.9999999999999929
0
CIRCLE
5
107
100
AcDbEntity
8
0
100
AcDbCircle
10
-36.429999999999971
20
-161.36070531465961
30
0
40
1.9999999999999929
0
CIRCLE
5
108
100
AcDbEntity
8
0
100
AcDbCircle
10
-36.429999999999971
20
65.969294685340557
30
0
40
1.9999999999999929
0
CIRCLE
5
109
100
AcDbEntity
8
0
100
AcDbCircle
10
-160.88999999999999
20
-6.4207053146594859
30
0
40
1.9999999999999929
0
CIRCLE
5
110
100
AcDbEntity
8
0
100
AcDbCircle
10
-160.88999999999999
20
65.969294685340557
30
0
40
1.9999999999999929
0
CIRCLE
5
111
100
AcDbEntity
8
0
100
AcDbCircle
10
-36.429999999999971
20
-6.4207053146594859
30
0
40
1.9999999999999929
0
CIRCLE
5
112
100
AcDbEntity
8
0
100
AcDbCircle
10
121.05000000000001
20
-138.50070531465957
30
0
40
1.9999999999999929
0
CIRCLE
5
113
100
AcDbEntity
8
0
100
AcDbCircle
10
-197.28571428571422
20
108.97929468534043
30
0
40
1.7500000000000071
0
CIRCLE
5
114
100
AcDbEntity
8
0
100
AcDbCircle
10
-108.83571428571422
20
108.97929468534043
30
0
40
1.7499999999999893
0
CIRCLE
5
115
100
AcDbEntity
8
0
100
AcDbCircle
10
-264.12142857142868
20
-34.020705314659466
30
0
40
1.7500000000000071
0
CIRCLE
5
116
100
AcDbEntity
8
0
100
AcDbCircle
10
-264.12142857142862
20
-159.02070531465958
30
0
40
1.7500000000000071
0
CIRCLE
5
117
100
AcDbEntity
8
0
100
AcDbCircle
10
-202.0214285714286
20
-34.020705314659466
30
0
40
1.7500000000000071
0
CIRCLE
5
118
100
AcDbEntity
8
0
100
AcDbCircle
10
-202.02142857142857
20
-159.02070531465955
30
0
40
1.7500000000000071
0
ENDSEC
0
SECTION
2
OBJECTS
0
DICTIONARY
5
C
100
AcDbDictionary
3
ACAD_GROUP
350
D
3
ACAD_MLINESTYLE
350
17
0
DICTIONARY
5
D
100
AcDbDictionary
0
DICTIONARY
5
1A
330
C
100
AcDbDictionary
0
DICTIONARY
5
17
100
AcDbDictionary
0
ENDSEC
0
EOF
