<?xml version="1.0" encoding="UTF-8" standalone="no"?>
<!-- Created with Inkscape (http://www.inkscape.org/) -->

<svg
   xmlns:dc="http://purl.org/dc/elements/1.1/"
   xmlns:cc="http://creativecommons.org/ns#"
   xmlns:rdf="http://www.w3.org/1999/02/22-rdf-syntax-ns#"
   xmlns:svg="http://www.w3.org/2000/svg"
   xmlns="http://www.w3.org/2000/svg"
   xmlns:sodipodi="http://sodipodi.sourceforge.net/DTD/sodipodi-0.dtd"
   xmlns:inkscape="http://www.inkscape.org/namespaces/inkscape"
   width="650mm"
   height="350mm"
   viewBox="0 0 650 350"
   version="1.1"
   id="svg3952"
   inkscape:version="0.92.4 (5da689c313, 2019-01-14)"
   sodipodi:docname="front.svg">
  <defs
     id="defs3946">
    <marker
       style="overflow:visible"
       refY="0"
       refX="0"
       orient="auto"
       id="DistanceX">
      <path
         id="path3956"
         style="stroke:#000000;stroke-width:0.5"
         d="M 3,-3 -3,3 M 0,-5 V 5"
         inkscape:connector-curvature="0" />
    </marker>
    <pattern
       y="0"
       x="0"
       width="8"
       patternUnits="userSpaceOnUse"
       id="Hatch"
       height="8">
      <path
         id="path3959"
         stroke-width="0.25"
         stroke="#000000"
         linecap="square"
         d="M8 4 l-4,4" />
      <path
         id="path3961"
         stroke-width="0.25"
         stroke="#000000"
         linecap="square"
         d="M6 2 l-4,4" />
      <path
         id="path3963"
         stroke-width="0.25"
         stroke="#000000"
         linecap="square"
         d="M4 0 l-4,4" />
    </pattern>
    <symbol
       id="*MODEL_SPACE" />
    <symbol
       id="*PAPER_SPACE" />
  </defs>
  <sodipodi:namedview
     id="base"
     pagecolor="#ffffff"
     bordercolor="#666666"
     borderopacity="1.0"
     inkscape:pageopacity="0.0"
     inkscape:pageshadow="2"
     inkscape:zoom="0.35"
     inkscape:cx="-365.71429"
     inkscape:cy="560"
     inkscape:document-units="mm"
     inkscape:current-layer="layer1"
     showgrid="false"
     inkscape:window-width="3000"
     inkscape:window-height="1881"
     inkscape:window-x="-14"
     inkscape:window-y="-14"
     inkscape:window-maximized="1" />
  <metadata
     id="metadata3949">
    <rdf:RDF>
      <cc:Work
         rdf:about="">
        <dc:format>image/svg+xml</dc:format>
        <dc:type
           rdf:resource="http://purl.org/dc/dcmitype/StillImage" />
        <dc:title></dc:title>
      </cc:Work>
    </rdf:RDF>
  </metadata>
  <g
     inkscape:label="Layer 1"
     inkscape:groupmode="layer"
     id="layer1"
     transform="translate(0,53)">
    <g
       id="g4012"
       inkscape:label="0"
       transform="matrix(0.26458333,0,0,0.26458333,325,-178.02061)">
      <path
         id="path3970"
         style="fill:none;stroke:#000000"
         d="m 831.76603,1430.6294 a 5.669291,5.669291 0 1 0 -11.33858,0 5.669291,5.669291 0 1 0 11.33858,0 z"
         inkscape:connector-curvature="0" />
      <path
         id="path3972"
         style="fill:none;stroke:#000000"
         d="m 281.03487,1430.6294 a 5.6692915,5.6692915 0 1 0 -11.33858,0 5.6692915,5.6692915 0 1 0 11.33858,0 z"
         inkscape:connector-curvature="0" />
      <path
         id="path3974"
         style="fill:none;stroke:#000000"
         d="m -269.69629,1430.6294 a 5.6692915,5.6692915 0 1 0 -11.33858,0 5.6692915,5.6692915 0 1 0 11.33858,0 z"
         inkscape:connector-curvature="0" />
      <path
         id="path3976"
         style="fill:none;stroke:#000000"
         d="m -820.42745,1430.6294 a 5.669291,5.669291 0 1 0 -11.33858,0 5.669291,5.669291 0 1 0 11.33858,0 z"
         inkscape:connector-curvature="0" />
      <path
         id="path3978"
         style="fill:none;stroke:#000000"
         d="m 1103.622,1209.5271 h -11.3385 v 113.3858 h 11.3385 z"
         inkscape:connector-curvature="0" />
      <path
         id="path3980"
         style="fill:none;stroke:#000000"
         d="M -1092.2835,1058.346 V 944.96015 h -11.3385 V 1058.346 Z"
         inkscape:connector-curvature="0" />
      <path
         id="path3982"
         style="fill:none;stroke:#000000"
         d="m 1103.622,944.96015 h -11.3385 V 1058.346 h 11.3385 z"
         inkscape:connector-curvature="0" />
      <path
         id="path3984"
         style="fill:none;stroke:#000000"
         d="m -1103.622,1322.9129 h 11.3385 v -113.3858 h -11.3385 z"
         inkscape:connector-curvature="0" />
      <path
         id="path3986"
         style="fill:none;stroke:#000000"
         d="m 356.35546,1424.9601 v 11.3386 h 113.38582 v -11.3386 z"
         inkscape:connector-curvature="0" />
      <path
         id="path3988"
         style="fill:none;stroke:#000000"
         d="m -745.10686,1424.9601 v 11.3386 h 113.38582 v -11.3386 z"
         inkscape:connector-curvature="0" />
      <path
         id="path3990"
         style="fill:none;stroke:#000000"
         d="m -469.74128,1424.9601 v 11.3386 h 113.38582 v -11.3386 z"
         inkscape:connector-curvature="0" />
      <path
         id="path3992"
         style="fill:none;stroke:#000000"
         d="m 631.72104,1424.9601 v 11.3386 h 113.38582 v -11.3386 z"
         inkscape:connector-curvature="0" />
      <path
         id="path3994"
         style="fill:none;stroke:#000000"
         d="m 80.989876,1424.9601 v 11.3386 H 194.3757 v -11.3386 z"
         inkscape:connector-curvature="0" />
      <path
         id="path3996"
         style="fill:none;stroke:#000000"
         d="m -907.08661,1436.2987 v -11.3386 h -113.38579 v 11.3386 z"
         inkscape:connector-curvature="0" />
      <path
         id="path3998"
         style="fill:none;stroke:#000000"
         d="m -194.3757,1424.9601 v 11.3386 h 113.385824 v -11.3386 z"
         inkscape:connector-curvature="0" />
      <path
         id="path4000"
         style="fill:none;stroke:#000000"
         d="m 907.08661,1424.9601 v 11.3386 h 113.38579 v -11.3386 z"
         inkscape:connector-curvature="0" />
      <path
         id="path4002"
         style="fill:none;stroke:#000000"
         d="M 729.94364,718.18849 1133.8583,831.57432 V 1587.4798 H 831.49606 L 694.47945,1523.5879 0,1451.4168 l -694.47945,72.1711 -137.01661,63.8919 H -1133.8583 V 831.57432 L -729.94364,718.18849 0,680.39322 Z"
         inkscape:connector-curvature="0" />
      <path
         id="path4004"
         style="fill:none;stroke:#000000"
         d="m 1103.622,893.93652 a 5.669291,5.669291 0 1 0 -11.3385,0 5.669291,5.669291 0 1 0 11.3385,0 z"
         inkscape:connector-curvature="0" />
      <path
         id="path4006"
         style="fill:none;stroke:#000000"
         d="m -1092.2835,893.93652 a 5.669291,5.669291 0 1 0 -11.3385,0 5.669291,5.669291 0 1 0 11.3385,0 z"
         inkscape:connector-curvature="0" />
      <path
         id="path4008"
         style="fill:none;stroke:#000000"
         d="m 1103.622,1379.6058 a 5.669291,5.669291 0 1 0 -11.3385,0 5.669291,5.669291 0 1 0 11.3385,0 z"
         inkscape:connector-curvature="0" />
      <path
         id="path4010"
         style="fill:none;stroke:#000000"
         d="m -1092.2835,1379.6058 a 5.669291,5.669291 0 1 0 -11.3385,0 5.669291,5.669291 0 1 0 11.3385,0 z"
         inkscape:connector-curvature="0" />
    </g>
  </g>
</svg>
