0
SECTION
2
HEADER
9
$INSUNITS
70
4
9
$ACADVER
1
AC1014
9
$HANDSEED
5
FFFF
0
ENDSEC
0
SECTION
2
TABLES
0
TABLE
2
VPORT
5
8
100
AcDbSymbolTable
0
ENDTAB
0
TABLE
2
LTYPE
5
5
100
AcDbSymbolTable
0
LTYPE
5
14
100
AcDbSymbolTableRecord
100
AcDbLinetypeTableRecord
2
BYBLOCK
70
0
0
LTYPE
5
15
100
AcDbSymbolTableRecord
100
AcDbLinetypeTableRecord
2
BYLAYER
70
0
0
ENDTAB
0
TABLE
2
LAYER
5
2
100
AcDbSymbolTable
70
2
0
LAYER
5
50
100
AcDbSymbolTableRecord
100
AcDbLayerTableRecord
2
0
70
0
6
CONTINUOUS
0
ENDTAB
0
TABLE
2
STYLE
5
3
100
AcDbSymbolTable
70
1
0
STYLE
5
11
100
AcDbSymbolTableRecord
100
AcDbTextStyleTableRecord
2
STANDARD
70
0
0
ENDTAB
0
TABLE
2
VIEW
5
6
100
AcDbSymbolTable
70
0
0
ENDTAB
0
TABLE
2
UCS
5
7
100
AcDbSymbolTable
70
0
0
ENDTAB
0
TABLE
2
APPID
5
9
100
AcDbSymbolTable
70
2
0
APPID
5
12
100
AcDbSymbolTableRecord
100
AcDbRegAppTableRecord
2
ACAD
70
0
0
ENDTAB
0
TABLE
2
DIMSTYLE
5
A
100
AcDbSymbolTable
70
1
0
ENDTAB
0
TABLE
2
BLOCK_RECORD
5
1
100
AcDbSymbolTable
70
1
0
BLOCK_RECORD
5
1F
100
AcDbSymbolTableRecord
100
AcDbBlockTableRecord
2
*MODEL_SPACE
0
BLOCK_RECORD
5
1B
100
AcDbSymbolTableRecord
100
AcDbBlockTableRecord
2
*PAPER_SPACE
0
ENDTAB
0
ENDSEC
0
SECTION
2
BLOCKS
0
BLOCK
5
20
100
AcDbEntity
100
AcDbBlockBegin
2
*MODEL_SPACE
0
ENDBLK
5
21
100
AcDbEntity
100
AcDbBlockEnd
0
BLOCK
5
1C
100
AcDbEntity
100
AcDbBlockBegin
2
*PAPER_SPACE
0
ENDBLK
5
1D
100
AcDbEntity
100
AcDbBlockEnd
0
ENDSEC
0
SECTION
2
ENTITIES
0
CIRCLE
5
100
100
AcDbEntity
8
0
100
AcDbCircle
10
218.57142857142861
20
-81.520705282688155
30
0
40
1.500000000000004
0
CIRCLE
5
101
100
AcDbEntity
8
0
100
AcDbCircle
10
72.857142857142904
20
-81.520705282688155
30
0
40
1.500000000000004
0
CIRCLE
5
102
100
AcDbEntity
8
0
100
AcDbCircle
10
-72.857142857142833
20
-81.520705282688155
30
0
40
1.500000000000004
0
CIRCLE
5
103
100
AcDbEntity
8
0
100
AcDbCircle
10
-218.57142857142856
20
-81.520705282688155
30
0
40
1.500000000000004
0
LWPOLYLINE
5
104
100
AcDbEntity
8
0
100
AcDbPolyline
90
4
70
1
43
0.0
10
292.00000000000034
20
-23.020705282688088
10
289.00000000000028
20
-23.020705282688141
10
289.00000000000085
20
-53.020705282688148
10
292.00000000000085
20
-53.020705282688084
0
LWPOLYLINE
5
105
100
AcDbEntity
8
0
100
AcDbPolyline
90
4
70
1
43
0.0
10
-288.99999999999994
20
16.979294717311856
10
-288.99999999999994
20
46.979294717311866
10
-291.99999999999994
20
46.979294717311859
10
-291.99999999999994
20
16.979294717311856
0
LWPOLYLINE
5
106
100
AcDbEntity
8
0
100
AcDbPolyline
90
4
70
1
43
0.0
10
291.99999999999994
20
46.979294717311866
10
288.99999999999994
20
46.979294717311866
10
288.99999999999994
20
16.979294717311856
10
291.99999999999994
20
16.979294717311856
0
LWPOLYLINE
5
107
100
AcDbEntity
8
0
100
AcDbPolyline
90
4
70
1
43
0.0
10
-292.00000000000085
20
-53.020705282688098
10
-289.00000000000085
20
-53.020705282688155
10
-289.00000000000028
20
-23.020705282688141
10
-292.00000000000034
20
-23.020705282688084
0
LWPOLYLINE
5
108
100
AcDbEntity
8
0
100
AcDbPolyline
90
4
70
1
43
0.0
10
94.285714285714334
20
-80.020705282688155
10
94.285714285714334
20
-83.020705282688155
10
124.28571428571433
20
-83.020705282688155
10
124.28571428571433
20
-80.020705282688155
0
LWPOLYLINE
5
109
100
AcDbEntity
8
0
100
AcDbPolyline
90
4
70
1
43
0.0
10
-197.14285714285711
20
-80.020705282688155
10
-197.14285714285711
20
-83.020705282688155
10
-167.14285714285711
20
-83.020705282688155
10
-167.14285714285711
20
-80.020705282688155
0
LWPOLYLINE
5
110
100
AcDbEntity
8
0
100
AcDbPolyline
90
4
70
1
43
0.0
10
-124.28571428571425
20
-80.020705282688155
10
-124.28571428571425
20
-83.020705282688155
10
-94.285714285714249
20
-83.020705282688155
10
-94.285714285714249
20
-80.020705282688155
0
LWPOLYLINE
5
111
100
AcDbEntity
8
0
100
AcDbPolyline
90
4
70
1
43
0.0
10
167.1428571428572
20
-80.020705282688155
10
167.1428571428572
20
-83.020705282688155
10
197.1428571428572
20
-83.020705282688155
10
197.1428571428572
20
-80.020705282688155
0
LWPOLYLINE
5
112
100
AcDbEntity
8
0
100
AcDbPolyline
90
4
70
1
43
0.0
10
21.428571428571459
20
-80.020705282688155
10
21.428571428571459
20
-83.020705282688155
10
51.428571428571459
20
-83.020705282688155
10
51.428571428571459
20
-80.020705282688155
0
LWPOLYLINE
5
113
100
AcDbEntity
8
0
100
AcDbPolyline
90
4
70
1
43
0.0
10
-239.99999999999997
20
-83.020705282688155
10
-239.99999999999997
20
-80.020705282688155
10
-269.99999999999994
20
-80.020705282688155
10
-269.99999999999994
20
-83.020705282688155
0
LWPOLYLINE
5
114
100
AcDbEntity
8
0
100
AcDbPolyline
90
4
70
1
43
0.0
10
-51.428571428571388
20
-80.020705282688155
10
-51.428571428571388
20
-83.020705282688155
10
-21.428571428571388
20
-83.020705282688155
10
-21.428571428571388
20
-80.020705282688155
0
LWPOLYLINE
5
115
100
AcDbEntity
8
0
100
AcDbPolyline
90
4
70
1
43
0.0
10
240.00000000000003
20
-80.020705282688155
10
240.00000000000003
20
-83.020705282688155
10
270.00000000000006
20
-83.020705282688155
10
270.00000000000006
20
-80.020705282688155
0
LWPOLYLINE
5
116
100
AcDbEntity
8
0
100
AcDbPolyline
90
12
70
1
43
0.0
10
193.13092121665881
20
106.97929471731194
10
300.00000000000006
20
76.979294717311973
10
299.99999999999994
20
-123.02070528268817
10
219.99999999999997
20
-123.02070528268817
10
183.74768851853395
20
-106.11597481306021
10
0
20
-87.020705282688169
10
-183.74768851853401
20
-106.11597481306021
10
-219.99999999999997
20
-123.02070528268817
10
-299.99999999999994
20
-123.0207052826882
10
-300.00000000000006
20
76.979294717311944
10
-193.13092121665886
20
106.97929471731194
10
0
20
116.97929471731193
0
CIRCLE
5
117
100
AcDbEntity
8
0
100
AcDbCircle
10
290.5
20
60.479294717311866
30
0
40
1.5000000000000218
0
CIRCLE
5
118
100
AcDbEntity
8
0
100
AcDbCircle
10
-290.5
20
60.479294717311866
30
0
40
1.5000000000000218
0
CIRCLE
5
119
100
AcDbEntity
8
0
100
AcDbCircle
10
290.5000000000004
20
-68.020705282688169
30
0
40
1.4999999999997373
0
CIRCLE
5
120
100
AcDbEntity
8
0
100
AcDbCircle
10
-290.5000000000004
20
-68.020705282688169
30
0
40
1.4999999999997373
0
ENDSEC
0
SECTION
2
OBJECTS
0
DICTIONARY
5
C
100
AcDbDictionary
3
ACAD_GROUP
350
D
3
ACAD_MLINESTYLE
350
17
0
DICTIONARY
5
D
100
AcDbDictionary
0
DICTIONARY
5
1A
330
C
100
AcDbDictionary
0
DICTIONARY
5
17
100
AcDbDictionary
0
ENDSEC
0
EOF
