0
SECTION
2
HEADER
9
$INSUNITS
70
4
9
$ACADVER
1
AC1014
9
$HANDSEED
5
FFFF
0
ENDSEC
0
SECTION
2
TABLES
0
TABLE
2
VPORT
5
8
100
AcDbSymbolTable
0
ENDTAB
0
TABLE
2
LTYPE
5
5
100
AcDbSymbolTable
0
LTYPE
5
14
100
AcDbSymbolTableRecord
100
AcDbLinetypeTableRecord
2
BYBLOCK
70
0
0
LTYPE
5
15
100
AcDbSymbolTableRecord
100
AcDbLinetypeTableRecord
2
BYLAYER
70
0
0
ENDTAB
0
TABLE
2
LAYER
5
2
100
AcDbSymbolTable
70
2
0
LAYER
5
50
100
AcDbSymbolTableRecord
100
AcDbLayerTableRecord
2
0
70
0
6
CONTINUOUS
0
ENDTAB
0
TABLE
2
STYLE
5
3
100
AcDbSymbolTable
70
1
0
STYLE
5
11
100
AcDbSymbolTableRecord
100
AcDbTextStyleTableRecord
2
STANDARD
70
0
0
ENDTAB
0
TABLE
2
VIEW
5
6
100
AcDbSymbolTable
70
0
0
ENDTAB
0
TABLE
2
UCS
5
7
100
AcDbSymbolTable
70
0
0
ENDTAB
0
TABLE
2
APPID
5
9
100
AcDbSymbolTable
70
2
0
APPID
5
12
100
AcDbSymbolTableRecord
100
AcDbRegAppTableRecord
2
ACAD
70
0
0
ENDTAB
0
TABLE
2
DIMSTYLE
5
A
100
AcDbSymbolTable
70
1
0
ENDTAB
0
TABLE
2
BLOCK_RECORD
5
1
100
AcDbSymbolTable
70
1
0
BLOCK_RECORD
5
1F
100
AcDbSymbolTableRecord
100
AcDbBlockTableRecord
2
*MODEL_SPACE
0
BLOCK_RECORD
5
1B
100
AcDbSymbolTableRecord
100
AcDbBlockTableRecord
2
*PAPER_SPACE
0
ENDTAB
0
ENDSEC
0
SECTION
2
BLOCKS
0
BLOCK
5
20
100
AcDbEntity
100
AcDbBlockBegin
2
*MODEL_SPACE
0
ENDBLK
5
21
100
AcDbEntity
100
AcDbBlockEnd
0
BLOCK
5
1C
100
AcDbEntity
100
AcDbBlockBegin
2
*PAPER_SPACE
0
ENDBLK
5
1D
100
AcDbEntity
100
AcDbBlockEnd
0
ENDSEC
0
SECTION
2
ENTITIES
0
LINE
5
100
100
AcDbEntity
8
0
100
AcDbLine
10
175.02070531465955
20
-69.520705314659651
30
0
11
165.39070531465953
21
-69.520705314659438
31
0
0
LINE
5
101
100
AcDbEntity
8
0
100
AcDbLine
10
165.39070531465953
20
-69.520705314659438
30
0
11
165.3907053146595
21
-70.720705314659426
31
0
0
LINE
5
102
100
AcDbEntity
8
0
100
AcDbLine
10
165.3907053146595
20
-70.720705314659426
30
0
11
163.02070531465949
21
-70.720705314659384
31
0
0
LINE
5
103
100
AcDbEntity
8
0
100
AcDbLine
10
163.02070531465949
20
-70.720705314659384
30
0
11
163.02070531465947
21
-69.520705314659381
31
0
0
LINE
5
104
100
AcDbEntity
8
0
100
AcDbLine
10
163.02070531465947
20
-69.520705314659381
30
0
11
160.02070531465947
21
-69.52070531465948
31
0
0
LINE
5
105
100
AcDbEntity
8
0
100
AcDbLine
10
160.02070531465947
20
-69.52070531465948
30
0
11
160.02070531465949
21
-66.52070531465948
31
0
0
LINE
5
106
100
AcDbEntity
8
0
100
AcDbLine
10
160.02070531465949
20
-66.52070531465948
30
0
11
163.02070531465949
21
-66.520705314659651
31
0
0
LINE
5
107
100
AcDbEntity
8
0
100
AcDbLine
10
163.02070531465949
20
-66.520705314659651
30
0
11
163.02070531465958
21
-65.320705314659648
31
0
0
LINE
5
108
100
AcDbEntity
8
0
100
AcDbLine
10
163.02070531465958
20
-65.320705314659648
30
0
11
165.39070531465956
21
-65.320705314659648
31
0
0
LINE
5
109
100
AcDbEntity
8
0
100
AcDbLine
10
165.39070531465956
20
-65.320705314659648
30
0
11
165.39070531465956
21
-66.520705314659637
31
0
0
LINE
5
110
100
AcDbEntity
8
0
100
AcDbLine
10
165.39070531465956
20
-66.520705314659637
30
0
11
175.02070531465958
21
-66.520705314659608
31
0
0
LINE
5
111
100
AcDbEntity
8
0
100
AcDbLine
10
175.02070531465958
20
-66.520705314659608
30
0
11
175.02070531465958
21
-53.020705314659637
31
0
0
LINE
5
112
100
AcDbEntity
8
0
100
AcDbLine
10
175.02070531465958
20
-53.020705314659637
30
0
11
178.02070531465958
21
-53.020705314659637
31
0
0
LINE
5
113
100
AcDbEntity
8
0
100
AcDbLine
10
178.02070531465958
20
-53.020705314659637
30
0
11
178.02070531465958
21
-23.020705314659565
31
0
0
LINE
5
114
100
AcDbEntity
8
0
100
AcDbLine
10
178.02070531465958
20
-23.020705314659565
30
0
11
175.02070531465958
21
-23.020705314659565
31
0
0
LINE
5
115
100
AcDbEntity
8
0
100
AcDbLine
10
175.02070531465958
20
-23.020705314659565
30
0
11
175.02070531465958
21
16.979294685340381
31
0
0
LINE
5
116
100
AcDbEntity
8
0
100
AcDbLine
10
175.02070531465958
20
16.979294685340381
30
0
11
178.02070531465958
21
16.979294685340381
31
0
0
LINE
5
117
100
AcDbEntity
8
0
100
AcDbLine
10
178.02070531465958
20
16.979294685340381
30
0
11
178.02070531465958
21
46.979294685340392
31
0
0
LINE
5
118
100
AcDbEntity
8
0
100
AcDbLine
10
178.02070531465958
20
46.979294685340392
30
0
11
175.02070531465958
21
46.979294685340392
31
0
0
LINE
5
119
100
AcDbEntity
8
0
100
AcDbLine
10
175.02070531465958
20
46.979294685340392
30
0
11
175.02070531465958
21
58.979294685340435
31
0
0
LINE
5
120
100
AcDbEntity
8
0
100
AcDbLine
10
175.02070531465958
20
58.979294685340435
30
0
11
165.39070531465956
21
58.979294685340435
31
0
0
LINE
5
121
100
AcDbEntity
8
0
100
AcDbLine
10
165.39070531465956
20
58.979294685340435
30
0
11
165.39070531465956
21
57.779294685340432
31
0
0
LINE
5
122
100
AcDbEntity
8
0
100
AcDbLine
10
165.39070531465956
20
57.779294685340432
30
0
11
163.02070531465958
21
57.779294685340432
31
0
0
LINE
5
123
100
AcDbEntity
8
0
100
AcDbLine
10
163.02070531465958
20
57.779294685340432
30
0
11
163.02070531465958
21
58.979294685340435
31
0
0
LINE
5
124
100
AcDbEntity
8
0
100
AcDbLine
10
163.02070531465958
20
58.979294685340435
30
0
11
160.02070531465958
21
58.979294685340435
31
0
0
LINE
5
125
100
AcDbEntity
8
0
100
AcDbLine
10
160.02070531465958
20
58.979294685340435
30
0
11
160.02070531465958
21
61.979294685340435
31
0
0
LINE
5
126
100
AcDbEntity
8
0
100
AcDbLine
10
160.02070531465958
20
61.979294685340435
30
0
11
163.02070531465958
21
61.979294685340435
31
0
0
LINE
5
127
100
AcDbEntity
8
0
100
AcDbLine
10
163.02070531465958
20
61.979294685340435
30
0
11
163.02070531465958
21
63.179294685340437
31
0
0
LINE
5
128
100
AcDbEntity
8
0
100
AcDbLine
10
163.02070531465958
20
63.179294685340437
30
0
11
165.39070531465956
21
63.179294685340437
31
0
0
LINE
5
129
100
AcDbEntity
8
0
100
AcDbLine
10
165.39070531465956
20
63.179294685340437
30
0
11
165.39070531465956
21
61.979294685340435
31
0
0
LINE
5
130
100
AcDbEntity
8
0
100
AcDbLine
10
165.39070531465956
20
61.979294685340435
30
0
11
175.02070531465958
21
61.979294685340435
31
0
0
LINE
5
131
100
AcDbEntity
8
0
100
AcDbLine
10
175.02070531465958
20
61.979294685340435
30
0
11
175.02070531465958
21
73.979294685340463
31
0
0
LINE
5
132
100
AcDbEntity
8
0
100
AcDbLine
10
175.02070531465958
20
73.979294685340463
30
0
11
148.02070531465952
21
73.979294685340463
31
0
0
LINE
5
133
100
AcDbEntity
8
0
100
AcDbLine
10
148.02070531465952
20
73.979294685340463
30
0
11
148.02070531465952
21
76.979294685340449
31
0
0
LINE
5
134
100
AcDbEntity
8
0
100
AcDbLine
10
148.02070531465952
20
76.979294685340449
30
0
11
118.02070531465952
21
76.979294685340449
31
0
0
LINE
5
135
100
AcDbEntity
8
0
100
AcDbLine
10
118.02070531465952
20
76.979294685340449
30
0
11
118.02070531465952
21
73.979294685340449
31
0
0
LINE
5
136
100
AcDbEntity
8
0
100
AcDbLine
10
118.02070531465952
20
73.979294685340449
30
0
11
78.020705314659551
21
73.979294685340449
31
0
0
LINE
5
137
100
AcDbEntity
8
0
100
AcDbLine
10
78.020705314659551
20
73.979294685340449
30
0
11
78.020705314659551
21
76.979294685340449
31
0
0
LINE
5
138
100
AcDbEntity
8
0
100
AcDbLine
10
78.020705314659551
20
76.979294685340449
30
0
11
48.020705314659544
21
76.979294685340435
31
0
0
LINE
5
139
100
AcDbEntity
8
0
100
AcDbLine
10
48.020705314659544
20
76.979294685340435
30
0
11
48.020705314659544
21
73.979294685340435
31
0
0
LINE
5
140
100
AcDbEntity
8
0
100
AcDbLine
10
48.020705314659544
20
73.979294685340435
30
0
11
8.0207053146595655
21
73.979294685340435
31
0
0
LINE
5
141
100
AcDbEntity
8
0
100
AcDbLine
10
8.0207053146595655
20
73.979294685340435
30
0
11
8.0207053146595655
21
76.979294685340435
31
0
0
LINE
5
142
100
AcDbEntity
8
0
100
AcDbLine
10
8.0207053146595655
20
76.979294685340435
30
0
11
-21.979294685340435
21
76.979294685340435
31
0
0
LINE
5
143
100
AcDbEntity
8
0
100
AcDbLine
10
-21.979294685340435
20
76.979294685340435
30
0
11
-21.979294685340435
21
73.979294685340435
31
0
0
LINE
5
144
100
AcDbEntity
8
0
100
AcDbLine
10
-21.979294685340435
20
73.979294685340435
30
0
11
-61.979294685340477
21
73.97929468534042
31
0
0
LINE
5
145
100
AcDbEntity
8
0
100
AcDbLine
10
-61.979294685340477
20
73.97929468534042
30
0
11
-61.979294685340477
21
76.97929468534042
31
0
0
LINE
5
146
100
AcDbEntity
8
0
100
AcDbLine
10
-61.979294685340477
20
76.97929468534042
30
0
11
-91.979294685340477
21
76.979294685340406
31
0
0
LINE
5
147
100
AcDbEntity
8
0
100
AcDbLine
10
-91.979294685340477
20
76.979294685340406
30
0
11
-91.979294685340477
21
73.97929468534042
31
0
0
LINE
5
148
100
AcDbEntity
8
0
100
AcDbLine
10
-91.979294685340477
20
73.97929468534042
30
0
11
-118.97929468534043
21
73.979294685340406
31
0
0
LINE
5
149
100
AcDbEntity
8
0
100
AcDbLine
10
-118.97929468534043
20
73.979294685340406
30
0
11
-118.97929468534048
21
61.979294685340363
31
0
0
LINE
5
150
100
AcDbEntity
8
0
100
AcDbLine
10
-118.97929468534043
20
46.979294685340321
30
0
11
-121.97929468534043
21
46.979294685340321
31
0
0
LINE
5
151
100
AcDbEntity
8
0
100
AcDbLine
10
-121.97929468534043
20
46.979294685340321
30
0
11
-121.97929468534042
21
16.979294685340321
31
0
0
LINE
5
152
100
AcDbEntity
8
0
100
AcDbLine
10
-121.97929468534042
20
16.979294685340321
30
0
11
-118.97929468534043
21
16.979294685340321
31
0
0
LINE
5
153
100
AcDbEntity
8
0
100
AcDbLine
10
-118.97929468534043
20
16.979294685340321
30
0
11
-118.97929468534042
21
-23.020705314659608
31
0
0
LINE
5
154
100
AcDbEntity
8
0
100
AcDbLine
10
-118.97929468534042
20
-23.020705314659608
30
0
11
-121.97929468534042
21
-23.020705314659608
31
0
0
LINE
5
155
100
AcDbEntity
8
0
100
AcDbLine
10
-121.97929468534042
20
-23.020705314659608
30
0
11
-121.97929468534041
21
-53.020705314659594
31
0
0
LINE
5
156
100
AcDbEntity
8
0
100
AcDbLine
10
-121.97929468534041
20
-53.020705314659594
30
0
11
-118.97929468534042
21
-53.020705314659594
31
0
0
LINE
5
157
100
AcDbEntity
8
0
100
AcDbLine
10
-118.97929468534042
20
-53.020705314659594
30
0
11
-118.97929468534042
21
-66.520705314659679
31
0
0
LINE
5
158
100
AcDbEntity
8
0
100
AcDbLine
10
135.02070531465958
20
-123.02070531465957
30
0
11
175.02070531465961
21
-123.02070531465965
31
0
0
LINE
5
159
100
AcDbEntity
8
0
100
AcDbLine
10
175.02070531465961
20
-123.02070531465965
30
0
11
175.02070531465955
21
-69.520705314659651
31
0
0
LWPOLYLINE
5
160
100
AcDbEntity
8
0
100
AcDbPolyline
90
4
70
1
43
0.0
10
78.02070531465958
20
-83.020705314659608
10
78.02070531465958
20
-80.020705314659608
10
48.02070531465958
20
-80.020705314659608
10
48.02070531465958
20
-83.020705314659594
0
LWPOLYLINE
5
161
100
AcDbEntity
8
0
100
AcDbPolyline
90
4
70
1
43
0.0
10
8.0207053146595797
20
-83.020705314659608
10
8.0207053146595797
20
-80.020705314659608
10
-21.97929468534042
20
-80.020705314659608
10
-21.97929468534042
20
-83.020705314659594
0
LWPOLYLINE
5
162
100
AcDbEntity
8
0
100
AcDbPolyline
90
4
70
1
43
0.0
10
148.02070531465955
20
-83.020705314659608
10
148.02070531465955
20
-80.020705314659608
10
118.02070531465957
20
-80.020705314659622
10
118.02070531465957
20
-83.020705314659637
0
LWPOLYLINE
5
163
100
AcDbEntity
8
0
100
AcDbPolyline
90
4
70
1
43
0.0
10
-61.97929468534042
20
-83.020705314659608
10
-61.97929468534042
20
-80.020705314659608
10
-91.97929468534042
20
-80.020705314659608
10
-91.97929468534042
20
-83.020705314659594
0
CIRCLE
5
164
100
AcDbEntity
8
0
100
AcDbCircle
10
-41.97929468534042
20
-81.520705314659608
30
0
40
1.5000000000000036
0
CIRCLE
5
165
100
AcDbEntity
8
0
100
AcDbCircle
10
98.02070531465958
20
-81.520705314659637
30
0
40
1.5000000000000036
0
LINE
5
166
100
AcDbEntity
8
0
100
AcDbLine
10
-78.979294685340392
20
-123.02070531465965
30
0
11
-61.396198509223019
21
-105.24896570196535
31
0
0
LINE
5
167
100
AcDbEntity
8
0
100
AcDbLine
10
-61.396198509223019
20
-105.24896570196535
30
0
11
28.020705314659573
21
-95.020705314659608
31
0
0
LINE
5
168
100
AcDbEntity
8
0
100
AcDbLine
10
28.020705314659573
20
-95.020705314659608
30
0
11
117.43760913854223
21
-105.24896570196529
31
0
0
LINE
5
169
100
AcDbEntity
8
0
100
AcDbLine
10
117.43760913854223
20
-105.24896570196529
30
0
11
135.02070531465958
21
-123.02070531465957
31
0
0
LINE
5
170
100
AcDbEntity
8
0
100
AcDbLine
10
-118.97929468534039
20
-123.02070531465965
30
0
11
-78.979294685340392
21
-123.02070531465965
31
0
0
LWPOLYLINE
5
171
100
AcDbEntity
8
0
100
AcDbPolyline
90
4
70
1
43
0.0
10
-107.69704054324158
20
-28.546794684654255
42
-0.065543462815238152
10
-112.64366168402034
20
-15.067933818810179
42
-0.32193451060990208
10
-69.07921312429076
20
14.241729262379311
42
0.065543462815238207
10
-73.202913582309677
20
11.039474821945223
42
0.32193451060990186
0
LWPOLYLINE
5
172
100
AcDbEntity
8
0
100
AcDbPolyline
90
4
70
1
43
0.0
10
-33.453205315345791
20
-51.738451172560865
42
-0.065543462815238152
10
-46.932066181189896
20
-56.685072313339603
42
-0.32193451060990158
10
-76.241729262379337
20
-13.120623753610035
42
0.065543462815237347
10
-73.039474821945248
20
-17.244324211628928
42
0.32193451060990158
0
LWPOLYLINE
5
173
100
AcDbEntity
8
0
100
AcDbPolyline
90
4
70
1
43
0.0
10
-10.261548827439144
20
22.5053840553349
42
-0.065543462815238152
10
-5.3149276866604289
20
9.026523189490824
42
-0.32193451060990153
10
-48.879376246390009
20
-20.283139891698617
42
0.065543462815237777
10
-44.755675788371093
20
-17.080885451264525
42
0.32193451060990169
0
LWPOLYLINE
5
174
100
AcDbEntity
8
0
100
AcDbPolyline
90
4
70
1
43
0.0
10
-84.505384055334929
20
45.697040543241556
42
-0.065543462815238263
10
-71.026523189490845
20
50.643661684020316
42
-0.32193451060990119
10
-41.716860108301418
20
7.0792131242907512
42
0.065543462815237777
10
-44.919114548735493
20
11.202913582309622
42
0.32193451060990191
0
CIRCLE
5
175
100
AcDbEntity
8
0
100
AcDbCircle
10
-111.97929468534045
20
49.979294685340328
30
0
40
2.5
0
CIRCLE
5
176
100
AcDbEntity
8
0
100
AcDbCircle
10
-111.97929468534041
20
-56.020705314659686
30
0
40
2.5
0
LWPOLYLINE
5
177
100
AcDbEntity
8
0
100
AcDbPolyline
90
4
70
1
43
0.0
10
-49.573018365058061
20
51.168979735050883
42
-0.3219345106099113
10
-39.165813243473977
20
-0.29564510379911146
42
0.065543462815238304
10
-40.546238733564252
20
4.739607068143652
42
0.32193451060991141
10
-63.918851997340802
20
51.757034448512272
42
-0.065543462815238263
0
LWPOLYLINE
5
178
100
AcDbEntity
8
0
100
AcDbPolyline
90
4
70
1
43
0.0
10
-4.2015549221713666
20
1.9188519973405205
42
-0.065543462815238263
10
-4.7896096356309625
20
-12.426981634943125
42
-0.32193451060990158
10
-56.254234474479873
20
-22.834186756526083
42
0.065543462815237777
10
-51.218982302537121
20
-21.453761266435816
42
0.32193451060990191
0
LWPOLYLINE
5
179
100
AcDbEntity
8
0
100
AcDbPolyline
90
4
70
1
43
0.0
10
-54.039737373340216
20
-57.798445077828674
42
-0.065543462815238152
10
-68.385571005623888
20
-57.21039036436909
42
-0.3219345106099018
10
-78.792776127206807
20
-5.7457655255201745
42
0.065543462815237458
10
-77.412350637116546
20
-10.781017697462914
42
0.32193451060990186
0
LWPOLYLINE
5
180
100
AcDbEntity
8
0
100
AcDbPolyline
90
4
70
1
43
0.0
10
-113.75703444850936
20
-7.9602626266597802
42
-0.065543462815237929
10
-113.16897973504982
20
6.3855710056238246
42
-0.32193451060990136
10
-61.704354896200933
20
16.792776127206793
42
0.065543462815238096
10
-66.73960706814367
20
15.412350637116505
42
0.32193451060990158
0
LWPOLYLINE
5
181
100
AcDbEntity
8
0
100
AcDbPolyline
90
4
70
1
43
0.0
10
-94.220211458574255
20
-45.247211030643371
42
-0.065543462815238152
10
-103.94843022614009
20
-34.687357311885577
42
-0.32193451060990208
10
-74.916450326039097
20
9.0626332175567743
42
0.065543462815237777
10
-77.500803056838478
20
4.5260640368261873
42
0.32193451060990186
0
LWPOLYLINE
5
182
100
AcDbEntity
8
0
100
AcDbPolyline
90
4
70
1
43
0.0
10
-16.752788969356672
20
-38.261622087893549
42
-0.065543462815238152
10
-27.312642688114465
20
-47.989840855459363
42
-0.32193451060990214
10
-71.062633217556822
20
-18.957860955358342
42
0.065543462815237458
10
-66.526064036826227
20
-21.542213686157751
42
0.32193451060990175
0
LWPOLYLINE
5
183
100
AcDbEntity
8
0
100
AcDbPolyline
90
4
70
1
43
0.0
10
-23.738377912106525
20
39.205800401324062
42
-0.065543462815238374
10
-14.010159144540669
20
28.645946682566262
42
-0.32193451060990169
10
-43.042139044641708
20
-15.104043846876095
42
0.065543462815237985
10
-40.457786313842291
20
-10.56747466614549
42
0.32193451060990186
0
LWPOLYLINE
5
184
100
AcDbEntity
8
0
100
AcDbPolyline
90
4
70
1
43
0.0
10
-101.20580040132403
20
32.220211458574248
42
-0.065543462815237929
10
-90.645946682566318
20
41.948430226140054
42
-0.3219345106099018
10
-46.895956153123947
20
12.916450326039037
42
0.065543462815238304
10
-51.432525333854535
20
15.500803056838457
42
0.32193451060990175
0
CIRCLE
5
185
100
AcDbEntity
8
0
100
AcDbCircle
10
-5.9792946853404061
20
49.979294685340385
30
0
40
2.5000000000000004
0
CIRCLE
5
186
100
AcDbEntity
8
0
100
AcDbCircle
10
-5.9792946853403528
20
-56.020705314659629
30
0
40
2.5000000000000004
0
LWPOLYLINE
5
187
100
AcDbEntity
8
0
100
AcDbPolyline
90
4
70
1
43
0.0
10
-29.551533842279557
20
43.444409467980677
42
-0.32193451060991102
10
-39.631189318514139
20
-8.0853690462601655
42
0.065543462815238096
10
-38.979628590982571
20
-2.9051366588972405
42
0.32193451060991141
10
-42.58031711579175
20
49.477614036284962
42
-0.065543462815238263
0
LWPOLYLINE
5
188
100
AcDbEntity
8
0
100
AcDbPolyline
90
4
70
1
43
0.0
10
-6.4809753343985754
20
-19.419682884207411
42
-0.065543462815238263
10
-12.514179902701542
20
-32.448466157721121
42
-0.32193451060990186
10
-64.043958416940882
20
-22.368810681485911
42
0.065543462815237347
10
-58.863726029577975
20
-23.020371409017464
42
0.32193451060990169
0
LWPOLYLINE
5
189
100
AcDbEntity
8
0
100
AcDbPolyline
90
4
70
1
43
0.0
10
-75.378272254888174
20
-55.519024665601442
42
-0.065543462815237929
10
-88.407055528401884
20
-49.485820097298507
42
-0.32193451060990114
10
-78.327400052166638
20
2.0439584169408542
42
0.065543462815237666
10
-78.978960779698198
20
-3.1362739704220477
42
0.32193451060990175
0
LWPOLYLINE
5
190
100
AcDbEntity
8
0
100
AcDbPolyline
90
4
70
1
43
0.0
10
-111.47761403628216
20
13.378272254888103
42
-0.065543462815238152
10
-105.44440946797926
20
26.40705552840183
42
-0.32193451060990158
10
-53.914630953739874
20
16.327400052166603
42
0.065543462815238096
10
-59.094863341102794
20
16.978960779698156
42
0.32193451060990175
0
LINE
5
191
100
AcDbEntity
8
0
100
AcDbLine
10
-118.97929468534048
20
61.979294685340363
30
0
11
-109.34929468534048
21
61.979294685340378
31
0
0
LINE
5
192
100
AcDbEntity
8
0
100
AcDbLine
10
-109.34929468534048
20
61.979294685340378
30
0
11
-109.34929468534048
21
63.179294685340381
31
0
0
LINE
5
193
100
AcDbEntity
8
0
100
AcDbLine
10
-109.34929468534048
20
63.179294685340381
30
0
11
-106.97929468534049
21
63.179294685340381
31
0
0
LINE
5
194
100
AcDbEntity
8
0
100
AcDbLine
10
-106.97929468534049
20
63.179294685340381
30
0
11
-106.97929468534049
21
61.979294685340378
31
0
0
LINE
5
195
100
AcDbEntity
8
0
100
AcDbLine
10
-106.97929468534049
20
61.979294685340378
30
0
11
-103.97929468534048
21
61.979294685340378
31
0
0
LINE
5
196
100
AcDbEntity
8
0
100
AcDbLine
10
-103.97929468534048
20
61.979294685340378
30
0
11
-103.97929468534048
21
58.979294685340371
31
0
0
LINE
5
197
100
AcDbEntity
8
0
100
AcDbLine
10
-103.97929468534048
20
58.979294685340371
30
0
11
-106.97929468534049
21
58.979294685340371
31
0
0
LINE
5
198
100
AcDbEntity
8
0
100
AcDbLine
10
-106.97929468534049
20
58.979294685340371
30
0
11
-106.97929468534049
21
57.779294685340368
31
0
0
LINE
5
199
100
AcDbEntity
8
0
100
AcDbLine
10
-106.97929468534049
20
57.779294685340368
30
0
11
-109.34929468534048
21
57.779294685340368
31
0
0
LINE
5
200
100
AcDbEntity
8
0
100
AcDbLine
10
-109.34929468534048
20
57.779294685340368
30
0
11
-109.34929468534048
21
58.979294685340371
31
0
0
LINE
5
201
100
AcDbEntity
8
0
100
AcDbLine
10
-109.34929468534048
20
58.979294685340371
30
0
11
-118.97929468534048
21
58.979294685340363
31
0
0
LINE
5
202
100
AcDbEntity
8
0
100
AcDbLine
10
-118.97929468534048
20
58.979294685340363
30
0
11
-118.97929468534043
21
46.979294685340321
31
0
0
LINE
5
203
100
AcDbEntity
8
0
100
AcDbLine
10
-118.97929468534042
20
-66.520705314659679
30
0
11
-109.3492946853404
21
-66.520705314659693
31
0
0
LINE
5
204
100
AcDbEntity
8
0
100
AcDbLine
10
-109.3492946853404
20
-66.520705314659693
30
0
11
-109.3492946853404
21
-65.320705314659691
31
0
0
LINE
5
205
100
AcDbEntity
8
0
100
AcDbLine
10
-109.3492946853404
20
-65.320705314659691
30
0
11
-106.97929468534042
21
-65.320705314659691
31
0
0
LINE
5
206
100
AcDbEntity
8
0
100
AcDbLine
10
-106.97929468534042
20
-65.320705314659691
30
0
11
-106.97929468534035
21
-66.520705314659693
31
0
0
LINE
5
207
100
AcDbEntity
8
0
100
AcDbLine
10
-106.97929468534035
20
-66.520705314659693
30
0
11
-103.97929468534034
21
-66.520705314659523
31
0
0
LINE
5
208
100
AcDbEntity
8
0
100
AcDbLine
10
-103.97929468534034
20
-66.520705314659523
30
0
11
-103.97929468534031
21
-69.520705314659523
31
0
0
LINE
5
209
100
AcDbEntity
8
0
100
AcDbLine
10
-103.97929468534031
20
-69.520705314659523
30
0
11
-106.97929468534031
21
-69.520705314659423
31
0
0
LINE
5
210
100
AcDbEntity
8
0
100
AcDbLine
10
-106.97929468534031
20
-69.520705314659423
30
0
11
-106.97929468534035
21
-70.720705314659426
31
0
0
LINE
5
211
100
AcDbEntity
8
0
100
AcDbLine
10
-106.97929468534035
20
-70.720705314659426
30
0
11
-109.34929468534034
21
-70.720705314659469
31
0
0
LINE
5
212
100
AcDbEntity
8
0
100
AcDbLine
10
-109.34929468534034
20
-70.720705314659469
30
0
11
-109.34929468534037
21
-69.520705314659494
31
0
0
LINE
5
213
100
AcDbEntity
8
0
100
AcDbLine
10
-109.34929468534037
20
-69.520705314659494
30
0
11
-118.97929468534038
21
-69.520705314659722
31
0
0
LINE
5
214
100
AcDbEntity
8
0
100
AcDbLine
10
-118.97929468534038
20
-69.520705314659722
30
0
11
-118.97929468534039
21
-123.02070531465965
31
0
0
ENDSEC
0
SECTION
2
OBJECTS
0
DICTIONARY
5
C
100
AcDbDictionary
3
ACAD_GROUP
350
D
3
ACAD_MLINESTYLE
350
17
0
DICTIONARY
5
D
100
AcDbDictionary
0
DICTIONARY
5
1A
330
C
100
AcDbDictionary
0
DICTIONARY
5
17
100
AcDbDictionary
0
ENDSEC
0
EOF
